<svg xmlns="http://www.w3.org/2000/svg" viewBox="-655.94 -642.94 1062.88 897.88" preserveAspectRatio="xMidYMid meet"><title>Colorado Springs - Lake</title><polyline points="-248,-535 -232,-522 -218,-507 -205,-492 -194,-474 -185,-456 -179,-437 -174,-417 -172,-397 -171,-377 -171,-357 -168,-337 -164,-317 -157,-298 -147,-280 -134,-265 -117,-254 -98,-248 -78,-245 -58,-245 -38,-247 -17,-251 2,-258 20,-265 40,-271 60,-275 80,-276 100,-273 119,-267 137,-257 153,-245 169,-232 184,-219 199,-205 215,-193 232,-182 250,-173 269,-166 288,-159 307,-151 324,-141 339,-127 348,-109 350,-89 346,-69 338,-51 327,-33 315,-17 301,-2 287,12 273,27 260,43 249,59 239,77 232,96 225,115 220,135 214,154 205,172 192,187 173,196 153,198 135,192 119,179 110,161 103,141 96,123 87,104 76,88 61,73 44,64 24,59 4,60 -15,67 -34,73 -55,75 -74,71 -93,63 -109,51 -125,38 -143,28 -163,22 -183,20 -203,23 -221,31 -238,42 -255,54 -271,65 -288,77 -306,86 -326,92 -346,93 -367,93 -387,90 -406,85 -426,78 -445,70 -463,61 -481,52 -498,41 -515,29 -530,15 -545,1 -559,-14 -573,-29 -586,-45 -596,-62 -599,-82 -598,-102 -593,-121 -584,-140 -575,-158 -567,-177 -561,-196 -557,-216 -553,-236 -548,-255 -541,-275 -532,-293 -521,-310 -508,-325 -492,-338 -475,-349 -458,-361 -443,-374 -431,-390 -423,-409 -420,-429 -422,-449 -427,-469 -435,-487 -444,-505 -449,-525 -447,-545 -438,-563 -422,-576 -404,-584 -384,-586 -363,-585 -343,-581 -324,-574 -305,-567 -287,-557 -270,-547 -253,-535" fill="none" stroke="white" stroke-width="17.08" stroke-linecap="round" stroke-linejoin="round"/></svg>