<svg xmlns="http://www.w3.org/2000/svg" viewBox="-442.32 -542.32 903.64 1088.64" preserveAspectRatio="xMidYMid meet"><title>WeatherTech Raceway Laguna Seca</title><polyline points="-277,-242 -288,-225 -298,-207 -308,-190 -318,-172 -327,-153 -335,-134 -344,-116 -352,-97 -359,-78 -366,-58 -371,-38 -376,-18 -379,2 -382,23 -383,43 -384,63 -384,84 -383,104 -382,125 -380,145 -375,165 -365,182 -349,194 -329,194 -313,183 -304,165 -301,145 -303,125 -308,105 -314,85 -319,66 -323,45 -324,25 -322,4 -319,-16 -313,-35 -303,-53 -287,-66 -269,-74 -249,-77 -229,-76 -209,-73 -189,-68 -169,-63 -150,-58 -130,-54 -110,-49 -90,-44 -72,-35 -55,-24 -41,-10 -29,6 -21,25 -16,45 -13,65 -11,85 -11,105 -11,126 -13,146 -15,167 -18,187 -22,207 -27,227 -31,247 -37,267 -42,287 -48,306 -54,326 -60,346 -66,366 -72,385 -76,405 -75,425 -70,445 -59,462 -44,475 -26,484 -6,488 15,488 35,486 55,483 75,479 94,475 115,471 134,468 155,464 175,461 195,457 215,455 236,452 256,449 276,446 295,440 314,432 331,420 345,405 356,388 366,370 372,351 377,331 381,311 383,291 384,270 384,249 385,229 385,209 384,188 384,168 384,148 384,127 385,107 385,86 386,66 388,46 390,26 394,5 399,-14 403,-34 403,-54 392,-71 375,-82 359,-95 350,-113 345,-133 345,-153 348,-173 352,-193 351,-213 348,-234 340,-253 329,-270 314,-283 296,-292 276,-297 256,-298 236,-296 217,-291 197,-283 179,-273 161,-264 142,-257 123,-251 103,-247 82,-248 62,-252 45,-262 30,-276 18,-292 8,-310 -1,-329 -8,-348 -15,-367 -22,-386 -31,-405 -40,-423 -49,-441 -59,-459 -70,-475 -88,-484 -107,-480 -123,-468 -135,-452 -147,-435 -158,-418 -170,-401 -182,-384 -193,-368 -204,-351 -216,-335 -227,-318 -239,-301 -250,-284 -262,-267 -273,-250" fill="none" stroke="white" stroke-width="17.50" stroke-linecap="round" stroke-linejoin="round"/></svg>